<!DOCTYPE svg PUBLIC "-//W3C//DTD SVG 1.1//EN" "http://www.w3.org/Graphics/SVG/1.1/DTD/svg11.dtd">
<!-- Uploaded to: SVG Repo, www.svgrepo.com, Transformed by: SVG Repo Mixer Tools -->
<svg fill="#ffffff" width="800px" height="800px" viewBox="0 0 24 24" xmlns="http://www.w3.org/2000/svg" stroke="#ffffff" stroke-width="0.21600000000000003">
<g id="SVGRepo_bgCarrier" stroke-width="0"/>
<g id="SVGRepo_tracerCarrier" stroke-linecap="round" stroke-linejoin="round"/>
<g id="SVGRepo_iconCarrier"> <g id="Grid_3-2"> <g> <g> <path d="M18.437,11H12.566a2.5,2.5,0,0,1-2.5-2.5V5.564a2.5,2.5,0,0,1,2.5-2.5h5.871a2.5,2.5,0,0,1,2.5,2.5V8.5A2.5,2.5,0,0,1,18.437,11ZM12.566,4.064a1.5,1.5,0,0,0-1.5,1.5V8.5a1.5,1.5,0,0,0,1.5,1.5h5.871a1.5,1.5,0,0,0,1.5-1.5V5.564a1.5,1.5,0,0,0-1.5-1.5Z"/> <path d="M5.565,11a2.5,2.5,0,0,1-2.5-2.5V5.564a2.5,2.5,0,1,1,5,0V8.5A2.5,2.5,0,0,1,5.565,11Zm0-6.934a1.5,1.5,0,0,0-1.5,1.5V8.5a1.5,1.5,0,0,0,3,0V5.564A1.5,1.5,0,0,0,5.565,4.064Z"/> </g> <path d="M18.437,20.936H5.565a2.5,2.5,0,0,1-2.5-2.5V15.5a2.5,2.5,0,0,1,2.5-2.5H18.437a2.5,2.5,0,0,1,2.5,2.5v2.934A2.5,2.5,0,0,1,18.437,20.936ZM5.565,14a1.5,1.5,0,0,0-1.5,1.5v2.934a1.5,1.5,0,0,0,1.5,1.5H18.437a1.5,1.5,0,0,0,1.5-1.5V15.5a1.5,1.5,0,0,0-1.5-1.5Z"/> </g> </g> </g>
</svg>